<svg xmlns="http://www.w3.org/2000/svg" width="300" height="200" viewBox="0 0 300 200">
<rect width="300" height="200" fill="#1a1b27" rx="5" ry="5"/>
<rect x="10" y="10" width="132.85459365069" height="10" fill="#3572A5"/>
<rect x="142.85459365069" y="10" width="54.225136222153395" height="10" fill="#f1e05a"/>
<rect x="197.0797298728434" y="10" width="37.33175777738318" height="10" fill="#e34c26"/>
<rect x="234.41148765022658" y="10" width="19.920006561277475" height="10" fill="#6594b9"/>
<rect x="254.33149421150404" y="10" width="15.465568024283098" height="10" fill="#663399"/>
<rect x="269.7970622357871" y="10" width="10.147174868396222" height="10" fill="#3178c6"/>
<rect x="279.94423710418334" y="10" width="4.2488730767056335" height="10" fill="#012456"/>
<rect x="284.193110180889" y="10" width="4.17819601497946" height="10" fill="#ff6347"/>
<circle cx="15" cy="36" r="5" fill="#3572A5"/>
<text x="25" y="40" font-family="Verdana,Geneva,DejaVu Sans,sans-serif" text-rendering="geometricPrecision" font-size="12" fill="#fff">Python (47.4%)</text>
<circle cx="15" cy="56" r="5" fill="#f1e05a"/>
<text x="25" y="60" font-family="Verdana,Geneva,DejaVu Sans,sans-serif" text-rendering="geometricPrecision" font-size="12" fill="#fff">JavaScript (19.4%)</text>
<circle cx="15" cy="76" r="5" fill="#e34c26"/>
<text x="25" y="80" font-family="Verdana,Geneva,DejaVu Sans,sans-serif" text-rendering="geometricPrecision" font-size="12" fill="#fff">HTML (13.3%)</text>
<circle cx="15" cy="96" r="5" fill="#6594b9"/>
<text x="25" y="100" font-family="Verdana,Geneva,DejaVu Sans,sans-serif" text-rendering="geometricPrecision" font-size="12" fill="#fff">AutoHotkey (7.1%)</text>
<circle cx="15" cy="116" r="5" fill="#663399"/>
<text x="25" y="120" font-family="Verdana,Geneva,DejaVu Sans,sans-serif" text-rendering="geometricPrecision" font-size="12" fill="#fff">CSS (5.5%)</text>
<circle cx="15" cy="136" r="5" fill="#3178c6"/>
<text x="25" y="140" font-family="Verdana,Geneva,DejaVu Sans,sans-serif" text-rendering="geometricPrecision" font-size="12" fill="#fff">TypeScript (3.6%)</text>
<circle cx="15" cy="156" r="5" fill="#012456"/>
<text x="25" y="160" font-family="Verdana,Geneva,DejaVu Sans,sans-serif" text-rendering="geometricPrecision" font-size="12" fill="#fff">PowerShell (1.5%)</text>
<circle cx="15" cy="176" r="5" fill="#ff6347"/>
<text x="25" y="180" font-family="Verdana,Geneva,DejaVu Sans,sans-serif" text-rendering="geometricPrecision" font-size="12" fill="#fff">Stylus (1.5%)</text>
</svg>