<svg xmlns="http://www.w3.org/2000/svg" width="300" height="180" viewBox="0 0 300 180">
<rect width="300" height="180" fill="#1a1b27" rx="5" ry="5"/>
<rect x="10" y="10" width="149.96724139295296" height="10" fill="#3572A5"/>
<rect x="159.96724139295296" y="10" width="49.487256585350416" height="10" fill="#6594b9"/>
<rect x="209.45449797830338" y="10" width="24.807602528901164" height="10" fill="#f1e05a"/>
<rect x="234.26210050720454" y="10" width="24.774923048924265" height="10" fill="#663399"/>
<rect x="259.0370235561288" y="10" width="12.606524818205557" height="10" fill="#e34c26"/>
<rect x="271.6435483743344" y="10" width="10.379889063847633" height="10" fill="#ff6347"/>
<rect x="282.02343743818204" y="10" width="5.68733729496198" height="10" fill="#012456"/>
<circle cx="15" cy="36" r="5" fill="#3572A5"/>
<text x="25" y="40" font-family="Verdana,Geneva,DejaVu Sans,sans-serif" text-rendering="geometricPrecision" font-size="12" fill="#fff">Python (53.6%)</text>
<circle cx="15" cy="56" r="5" fill="#6594b9"/>
<text x="25" y="60" font-family="Verdana,Geneva,DejaVu Sans,sans-serif" text-rendering="geometricPrecision" font-size="12" fill="#fff">AutoHotkey (17.7%)</text>
<circle cx="15" cy="76" r="5" fill="#f1e05a"/>
<text x="25" y="80" font-family="Verdana,Geneva,DejaVu Sans,sans-serif" text-rendering="geometricPrecision" font-size="12" fill="#fff">JavaScript (8.9%)</text>
<circle cx="15" cy="96" r="5" fill="#663399"/>
<text x="25" y="100" font-family="Verdana,Geneva,DejaVu Sans,sans-serif" text-rendering="geometricPrecision" font-size="12" fill="#fff">CSS (8.8%)</text>
<circle cx="15" cy="116" r="5" fill="#e34c26"/>
<text x="25" y="120" font-family="Verdana,Geneva,DejaVu Sans,sans-serif" text-rendering="geometricPrecision" font-size="12" fill="#fff">HTML (4.5%)</text>
<circle cx="15" cy="136" r="5" fill="#ff6347"/>
<text x="25" y="140" font-family="Verdana,Geneva,DejaVu Sans,sans-serif" text-rendering="geometricPrecision" font-size="12" fill="#fff">Stylus (3.7%)</text>
<circle cx="15" cy="156" r="5" fill="#012456"/>
<text x="25" y="160" font-family="Verdana,Geneva,DejaVu Sans,sans-serif" text-rendering="geometricPrecision" font-size="12" fill="#fff">PowerShell (2.0%)</text>
</svg>