<svg xmlns="http://www.w3.org/2000/svg" width="300" height="200" viewBox="0 0 300 200">
<rect width="300" height="200" fill="#1a1b27" rx="5" ry="5"/>
<rect x="10" y="10" width="134.89010895712468" height="10" fill="#3572A5"/>
<rect x="144.89010895712468" y="10" width="41.90491014574784" height="10" fill="#f1e05a"/>
<rect x="186.79501910287252" y="10" width="35.399179283996034" height="10" fill="#6594b9"/>
<rect x="222.19419838686855" y="10" width="22.043016838828354" height="10" fill="#663399"/>
<rect x="244.2372152256969" y="10" width="17.647092118296307" height="10" fill="#3178c6"/>
<rect x="261.8843073439932" y="10" width="12.760266025187489" height="10" fill="#e34c26"/>
<rect x="274.6445733691807" y="10" width="7.4249327861893315" height="10" fill="#ff6347"/>
<rect x="282.06950615537005" y="10" width="5.213301259374558" height="10" fill="#012456"/>
<circle cx="15" cy="36" r="5" fill="#3572A5"/>
<text x="25" y="40" font-family="Verdana,Geneva,DejaVu Sans,sans-serif" text-rendering="geometricPrecision" font-size="12" fill="#fff">Python (48.2%)</text>
<circle cx="15" cy="56" r="5" fill="#f1e05a"/>
<text x="25" y="60" font-family="Verdana,Geneva,DejaVu Sans,sans-serif" text-rendering="geometricPrecision" font-size="12" fill="#fff">JavaScript (15.0%)</text>
<circle cx="15" cy="76" r="5" fill="#6594b9"/>
<text x="25" y="80" font-family="Verdana,Geneva,DejaVu Sans,sans-serif" text-rendering="geometricPrecision" font-size="12" fill="#fff">AutoHotkey (12.6%)</text>
<circle cx="15" cy="96" r="5" fill="#663399"/>
<text x="25" y="100" font-family="Verdana,Geneva,DejaVu Sans,sans-serif" text-rendering="geometricPrecision" font-size="12" fill="#fff">CSS (7.9%)</text>
<circle cx="15" cy="116" r="5" fill="#3178c6"/>
<text x="25" y="120" font-family="Verdana,Geneva,DejaVu Sans,sans-serif" text-rendering="geometricPrecision" font-size="12" fill="#fff">TypeScript (6.3%)</text>
<circle cx="15" cy="136" r="5" fill="#e34c26"/>
<text x="25" y="140" font-family="Verdana,Geneva,DejaVu Sans,sans-serif" text-rendering="geometricPrecision" font-size="12" fill="#fff">HTML (4.6%)</text>
<circle cx="15" cy="156" r="5" fill="#ff6347"/>
<text x="25" y="160" font-family="Verdana,Geneva,DejaVu Sans,sans-serif" text-rendering="geometricPrecision" font-size="12" fill="#fff">Stylus (2.7%)</text>
<circle cx="15" cy="176" r="5" fill="#012456"/>
<text x="25" y="180" font-family="Verdana,Geneva,DejaVu Sans,sans-serif" text-rendering="geometricPrecision" font-size="12" fill="#fff">PowerShell (1.9%)</text>
</svg>