<svg xmlns="http://www.w3.org/2000/svg" width="300" height="180" viewBox="0 0 300 180">
<rect width="300" height="180" fill="#1a1b27" rx="5" ry="5"/>
<rect x="10" y="10" width="131.98331772439167" height="10" fill="#3572A5"/>
<rect x="141.98331772439167" y="10" width="46.70104141455595" height="10" fill="#f1e05a"/>
<rect x="188.68435913894763" y="10" width="43.874455002402726" height="10" fill="#6594b9"/>
<rect x="232.55881414135035" y="10" width="27.94372362702697" height="10" fill="#663399"/>
<rect x="260.50253776837735" y="10" width="14.022441799693432" height="10" fill="#e34c26"/>
<rect x="274.52497956807076" y="10" width="9.202611077788651" height="10" fill="#ff6347"/>
<rect x="283.72759064585944" y="10" width="4.782018499226568" height="10" fill="#012456"/>
<circle cx="15" cy="36" r="5" fill="#3572A5"/>
<text x="25" y="40" font-family="Verdana,Geneva,DejaVu Sans,sans-serif" text-rendering="geometricPrecision" font-size="12" fill="#fff">Python (47.1%)</text>
<circle cx="15" cy="56" r="5" fill="#f1e05a"/>
<text x="25" y="60" font-family="Verdana,Geneva,DejaVu Sans,sans-serif" text-rendering="geometricPrecision" font-size="12" fill="#fff">JavaScript (16.7%)</text>
<circle cx="15" cy="76" r="5" fill="#6594b9"/>
<text x="25" y="80" font-family="Verdana,Geneva,DejaVu Sans,sans-serif" text-rendering="geometricPrecision" font-size="12" fill="#fff">AutoHotkey (15.7%)</text>
<circle cx="15" cy="96" r="5" fill="#663399"/>
<text x="25" y="100" font-family="Verdana,Geneva,DejaVu Sans,sans-serif" text-rendering="geometricPrecision" font-size="12" fill="#fff">CSS (10.0%)</text>
<circle cx="15" cy="116" r="5" fill="#e34c26"/>
<text x="25" y="120" font-family="Verdana,Geneva,DejaVu Sans,sans-serif" text-rendering="geometricPrecision" font-size="12" fill="#fff">HTML (5.0%)</text>
<circle cx="15" cy="136" r="5" fill="#ff6347"/>
<text x="25" y="140" font-family="Verdana,Geneva,DejaVu Sans,sans-serif" text-rendering="geometricPrecision" font-size="12" fill="#fff">Stylus (3.3%)</text>
<circle cx="15" cy="156" r="5" fill="#012456"/>
<text x="25" y="160" font-family="Verdana,Geneva,DejaVu Sans,sans-serif" text-rendering="geometricPrecision" font-size="12" fill="#fff">PowerShell (1.7%)</text>
</svg>