<svg xmlns="http://www.w3.org/2000/svg" width="300" height="180" viewBox="0 0 300 180">
<rect width="300" height="180" fill="#1a1b27" rx="5" ry="5"/>
<rect x="10" y="10" width="140.32921951227084" height="10" fill="#3572A5"/>
<rect x="150.32921951227084" y="10" width="45.96686695092441" height="10" fill="#f1e05a"/>
<rect x="196.29608646319525" y="10" width="38.83051791925818" height="10" fill="#6594b9"/>
<rect x="235.12660438245342" y="10" width="24.105822109705688" height="10" fill="#663399"/>
<rect x="259.2324264921591" y="10" width="13.997153283425249" height="10" fill="#e34c26"/>
<rect x="273.22957977558434" y="10" width="8.14465169631091" height="10" fill="#ff6347"/>
<rect x="281.37423147189526" y="10" width="5.718640716118408" height="10" fill="#012456"/>
<circle cx="15" cy="36" r="5" fill="#3572A5"/>
<text x="25" y="40" font-family="Verdana,Geneva,DejaVu Sans,sans-serif" text-rendering="geometricPrecision" font-size="12" fill="#fff">Python (50.1%)</text>
<circle cx="15" cy="56" r="5" fill="#f1e05a"/>
<text x="25" y="60" font-family="Verdana,Geneva,DejaVu Sans,sans-serif" text-rendering="geometricPrecision" font-size="12" fill="#fff">JavaScript (16.4%)</text>
<circle cx="15" cy="76" r="5" fill="#6594b9"/>
<text x="25" y="80" font-family="Verdana,Geneva,DejaVu Sans,sans-serif" text-rendering="geometricPrecision" font-size="12" fill="#fff">AutoHotkey (13.9%)</text>
<circle cx="15" cy="96" r="5" fill="#663399"/>
<text x="25" y="100" font-family="Verdana,Geneva,DejaVu Sans,sans-serif" text-rendering="geometricPrecision" font-size="12" fill="#fff">CSS (8.6%)</text>
<circle cx="15" cy="116" r="5" fill="#e34c26"/>
<text x="25" y="120" font-family="Verdana,Geneva,DejaVu Sans,sans-serif" text-rendering="geometricPrecision" font-size="12" fill="#fff">HTML (5.0%)</text>
<circle cx="15" cy="136" r="5" fill="#ff6347"/>
<text x="25" y="140" font-family="Verdana,Geneva,DejaVu Sans,sans-serif" text-rendering="geometricPrecision" font-size="12" fill="#fff">Stylus (2.9%)</text>
<circle cx="15" cy="156" r="5" fill="#012456"/>
<text x="25" y="160" font-family="Verdana,Geneva,DejaVu Sans,sans-serif" text-rendering="geometricPrecision" font-size="12" fill="#fff">PowerShell (2.0%)</text>
</svg>