<svg xmlns="http://www.w3.org/2000/svg" width="300" height="200" viewBox="0 0 300 200">
<rect width="300" height="200" fill="#1a1b27" rx="5" ry="5"/>
<rect x="10" y="10" width="143.0800631807832" height="10" fill="#3572A5"/>
<rect x="153.0800631807832" y="10" width="37.79886083133329" height="10" fill="#e34c26"/>
<rect x="190.8789240121165" y="10" width="29.379542828228956" height="10" fill="#f1e05a"/>
<rect x="220.25846684034545" y="10" width="23.120337511196812" height="10" fill="#3178c6"/>
<rect x="243.37880435154227" y="10" width="21.382148009873706" height="10" fill="#6594b9"/>
<rect x="264.760952361416" y="10" width="14.445185200380179" height="10" fill="#663399"/>
<rect x="279.2061375617962" y="10" width="4.560743126354729" height="10" fill="#012456"/>
<rect x="283.76688068815093" y="10" width="4.484878322290372" height="10" fill="#ff6347"/>
<circle cx="15" cy="36" r="5" fill="#3572A5"/>
<text x="25" y="40" font-family="Verdana,Geneva,DejaVu Sans,sans-serif" text-rendering="geometricPrecision" font-size="12" fill="#fff">Python (51.1%)</text>
<circle cx="15" cy="56" r="5" fill="#e34c26"/>
<text x="25" y="60" font-family="Verdana,Geneva,DejaVu Sans,sans-serif" text-rendering="geometricPrecision" font-size="12" fill="#fff">HTML (13.5%)</text>
<circle cx="15" cy="76" r="5" fill="#f1e05a"/>
<text x="25" y="80" font-family="Verdana,Geneva,DejaVu Sans,sans-serif" text-rendering="geometricPrecision" font-size="12" fill="#fff">JavaScript (10.5%)</text>
<circle cx="15" cy="96" r="5" fill="#3178c6"/>
<text x="25" y="100" font-family="Verdana,Geneva,DejaVu Sans,sans-serif" text-rendering="geometricPrecision" font-size="12" fill="#fff">TypeScript (8.3%)</text>
<circle cx="15" cy="116" r="5" fill="#6594b9"/>
<text x="25" y="120" font-family="Verdana,Geneva,DejaVu Sans,sans-serif" text-rendering="geometricPrecision" font-size="12" fill="#fff">AutoHotkey (7.6%)</text>
<circle cx="15" cy="136" r="5" fill="#663399"/>
<text x="25" y="140" font-family="Verdana,Geneva,DejaVu Sans,sans-serif" text-rendering="geometricPrecision" font-size="12" fill="#fff">CSS (5.2%)</text>
<circle cx="15" cy="156" r="5" fill="#012456"/>
<text x="25" y="160" font-family="Verdana,Geneva,DejaVu Sans,sans-serif" text-rendering="geometricPrecision" font-size="12" fill="#fff">PowerShell (1.6%)</text>
<circle cx="15" cy="176" r="5" fill="#ff6347"/>
<text x="25" y="180" font-family="Verdana,Geneva,DejaVu Sans,sans-serif" text-rendering="geometricPrecision" font-size="12" fill="#fff">Stylus (1.6%)</text>
</svg>