<svg xmlns="http://www.w3.org/2000/svg" width="180" height="213" viewBox="0 0 180 213">
<rect width="180" height="213" fill="#1a1b27" rx="5" ry="5"/>

  <g shape-rendering="crispEdges">
    <rect x="10" y="10" width="104" height="28" fill="#555"/>
    <rect x="114" y="10" width="56" height="28" fill="#6f42c1"/>
  </g>
  <g fill="#fff" text-anchor="middle" font-family="Verdana,Geneva,DejaVu Sans,sans-serif" text-rendering="geometricPrecision" font-size="110">
    <text x="62.0" y="29" transform="scale(1)" fill="#fff" font-size="11">TOTAL COMMITS</text>
    <text x="142.0" y="29" transform="scale(1)" fill="#fff" font-weight="bold" font-size="11">534</text>
  </g>

  <g shape-rendering="crispEdges">
    <rect x="10" y="43" width="104" height="28" fill="#555"/>
    <rect x="114" y="43" width="56" height="28" fill="#007ec6"/>
  </g>
  <g fill="#fff" text-anchor="middle" font-family="Verdana,Geneva,DejaVu Sans,sans-serif" text-rendering="geometricPrecision" font-size="110">
    <text x="62.0" y="62" transform="scale(1)" fill="#fff" font-size="11">TOTAL STARS</text>
    <text x="142.0" y="62" transform="scale(1)" fill="#fff" font-weight="bold" font-size="11">150</text>
  </g>

  <g shape-rendering="crispEdges">
    <rect x="10" y="76" width="104" height="28" fill="#555"/>
    <rect x="114" y="76" width="56" height="28" fill="#dfb317"/>
  </g>
  <g fill="#fff" text-anchor="middle" font-family="Verdana,Geneva,DejaVu Sans,sans-serif" text-rendering="geometricPrecision" font-size="110">
    <text x="62.0" y="95" transform="scale(1)" fill="#fff" font-size="11">TOTAL PRS</text>
    <text x="142.0" y="95" transform="scale(1)" fill="#fff" font-weight="bold" font-size="11">32</text>
  </g>

  <g shape-rendering="crispEdges">
    <rect x="10" y="109" width="104" height="28" fill="#555"/>
    <rect x="114" y="109" width="56" height="28" fill="#e05d44"/>
  </g>
  <g fill="#fff" text-anchor="middle" font-family="Verdana,Geneva,DejaVu Sans,sans-serif" text-rendering="geometricPrecision" font-size="110">
    <text x="62.0" y="128" transform="scale(1)" fill="#fff" font-size="11">TOTAL ISSUES</text>
    <text x="142.0" y="128" transform="scale(1)" fill="#fff" font-weight="bold" font-size="11">18</text>
  </g>

  <g shape-rendering="crispEdges">
    <rect x="10" y="142" width="104" height="28" fill="#555"/>
    <rect x="114" y="142" width="56" height="28" fill="#fe7d37"/>
  </g>
  <g fill="#fff" text-anchor="middle" font-family="Verdana,Geneva,DejaVu Sans,sans-serif" text-rendering="geometricPrecision" font-size="110">
    <text x="62.0" y="161" transform="scale(1)" fill="#fff" font-size="11">PUBLIC REPOS</text>
    <text x="142.0" y="161" transform="scale(1)" fill="#fff" font-weight="bold" font-size="11">9</text>
  </g>

  <g shape-rendering="crispEdges">
    <rect x="10" y="175" width="104" height="28" fill="#555"/>
    <rect x="114" y="175" width="56" height="28" fill="#97ca00"/>
  </g>
  <g fill="#fff" text-anchor="middle" font-family="Verdana,Geneva,DejaVu Sans,sans-serif" text-rendering="geometricPrecision" font-size="110">
    <text x="62.0" y="194" transform="scale(1)" fill="#fff" font-size="11">FOLLOWERS</text>
    <text x="142.0" y="194" transform="scale(1)" fill="#fff" font-weight="bold" font-size="11">15</text>
  </g>
</svg>