<svg xmlns="http://www.w3.org/2000/svg" width="218" height="213" viewBox="0 0 218 213">
<rect width="218" height="213" fill="#1a1b27" rx="5" ry="5"/>

  <g shape-rendering="crispEdges">
    <rect x="10" y="10" width="90" height="28" fill="#555"/>
    <rect x="100" y="10" width="108" height="28" fill="#555"/>
  </g>
  <g fill="#fff" text-anchor="middle" font-family="Verdana,Geneva,DejaVu Sans,sans-serif" text-rendering="geometricPrecision" font-size="110">
    <text x="55.0" y="29" transform="scale(1)" fill="#fff" font-size="11">REPO</text>
    <text x="154.0" y="29" transform="scale(1)" fill="#fff" font-weight="bold" font-size="11">DOTA2-MINIFY</text>
  </g>

  <g shape-rendering="crispEdges">
    <rect x="10" y="43" width="90" height="28" fill="#555"/>
    <rect x="100" y="43" width="108" height="28" fill="#007ec6"/>
  </g>
  <g fill="#fff" text-anchor="middle" font-family="Verdana,Geneva,DejaVu Sans,sans-serif" text-rendering="geometricPrecision" font-size="110">
    <text x="55.0" y="62" transform="scale(1)" fill="#fff" font-size="11">STARS</text>
    <text x="154.0" y="62" transform="scale(1)" fill="#fff" font-weight="bold" font-size="11">128</text>
  </g>

  <g shape-rendering="crispEdges">
    <rect x="10" y="76" width="90" height="28" fill="#555"/>
    <rect x="100" y="76" width="108" height="28" fill="#6f42c1"/>
  </g>
  <g fill="#fff" text-anchor="middle" font-family="Verdana,Geneva,DejaVu Sans,sans-serif" text-rendering="geometricPrecision" font-size="110">
    <text x="55.0" y="95" transform="scale(1)" fill="#fff" font-size="11">FORKS</text>
    <text x="154.0" y="95" transform="scale(1)" fill="#fff" font-weight="bold" font-size="11">8</text>
  </g>

  <g shape-rendering="crispEdges">
    <rect x="10" y="109" width="90" height="28" fill="#555"/>
    <rect x="100" y="109" width="108" height="28" fill="#dfb317"/>
  </g>
  <g fill="#fff" text-anchor="middle" font-family="Verdana,Geneva,DejaVu Sans,sans-serif" text-rendering="geometricPrecision" font-size="110">
    <text x="55.0" y="128" transform="scale(1)" fill="#fff" font-size="11">LANGUAGE</text>
    <text x="154.0" y="128" transform="scale(1)" fill="#fff" font-weight="bold" font-size="11">PYTHON</text>
  </g>

  <g shape-rendering="crispEdges">
    <rect x="10" y="142" width="90" height="28" fill="#555"/>
    <rect x="100" y="142" width="108" height="28" fill="#2ea44f"/>
  </g>
  <g fill="#fff" text-anchor="middle" font-family="Verdana,Geneva,DejaVu Sans,sans-serif" text-rendering="geometricPrecision" font-size="110">
    <text x="55.0" y="161" transform="scale(1)" fill="#fff" font-size="11">DOWNLOADS</text>
    <text x="154.0" y="161" transform="scale(1)" fill="#fff" font-weight="bold" font-size="11">73905</text>
  </g>

  <g shape-rendering="crispEdges">
    <rect x="10" y="175" width="90" height="28" fill="#555"/>
    <rect x="100" y="175" width="108" height="28" fill="#fe7d37"/>
  </g>
  <g fill="#fff" text-anchor="middle" font-family="Verdana,Geneva,DejaVu Sans,sans-serif" text-rendering="geometricPrecision" font-size="110">
    <text x="55.0" y="194" transform="scale(1)" fill="#fff" font-size="11">LICENSE</text>
    <text x="154.0" y="194" transform="scale(1)" fill="#fff" font-weight="bold" font-size="11">GPL-3.0</text>
  </g>
</svg>